<?xml version="1.0" encoding="utf-8"?>
<!-- Generator: Adobe Illustrator 19.0.0, SVG Export Plug-In . SVG Version: 6.00 Build 0)  -->
<svg version="1.1" id="Calque_1" xmlns="http://www.w3.org/2000/svg" xmlns:xlink="http://www.w3.org/1999/xlink" x="0px" y="0px"
	 viewBox="0 0 45.3 127.6" style="enable-background:new 0 0 45.3 127.6;" xml:space="preserve">
<style type="text/css">
	.st0{fill:#FFFFFF;stroke:#000000;stroke-width:0.5125;stroke-miterlimit:10;}
</style>
<g id="XMLID_26_">
	<path id="XMLID_30_" class="st0" d="M38.9,125.5L38.9,125.5c-2.1,0-3.8-1.7-3.8-3.8V23.2c0-2.1,1.7-3.8,3.8-3.8h0
		c2.1,0,3.8,1.7,3.8,3.8v98.5C42.7,123.8,41,125.5,38.9,125.5z"/>
	<path id="XMLID_29_" class="st0" d="M37.1,30.3c-0.5-0.3-1,3.7-1.5,3.6c-23-3.9-15.7,33.3-15.7,33.3s-17-5.4-18.5-32.5
		S21.8,2.1,21.8,2.1c-3.8,18.5,15.3,21.2,15.3,21.2V30.3z"/>
	<rect id="XMLID_28_" x="33.7" y="21.6" class="st0" width="10.5" height="13.1"/>
	<circle id="XMLID_27_" class="st0" cx="38.9" cy="28.1" r="1.9"/>
</g>
</svg>
